<?xml version="1.0" encoding="UTF-8" standalone="no"?>
<!-- Created with Inkscape (http://www.inkscape.org/) -->

<svg
   xmlns:dc="http://purl.org/dc/elements/1.1/"
   xmlns:cc="http://creativecommons.org/ns#"
   xmlns:rdf="http://www.w3.org/1999/02/22-rdf-syntax-ns#"
   xmlns:svg="http://www.w3.org/2000/svg"
   xmlns="http://www.w3.org/2000/svg"
   xmlns:sodipodi="http://sodipodi.sourceforge.net/DTD/sodipodi-0.dtd"
   xmlns:inkscape="http://www.inkscape.org/namespaces/inkscape"
   width="130mm"
   height="130mm"
   viewBox="0 0 130 130"
   version="1.1"
   id="svg8"
   inkscape:version="0.92.3 (2405546, 2018-03-11)"
   sodipodi:docname="github-brands.svg">
  <defs
     id="defs2" />
  <sodipodi:namedview
     id="base"
     pagecolor="#ffffff"
     bordercolor="#666666"
     borderopacity="1.0"
     inkscape:pageopacity="0.0"
     inkscape:pageshadow="2"
     inkscape:zoom="0.35"
     inkscape:cx="-168.57143"
     inkscape:cy="548.57143"
     inkscape:document-units="mm"
     inkscape:current-layer="layer1"
     showgrid="false"
     inkscape:window-width="1920"
     inkscape:window-height="1016"
     inkscape:window-x="0"
     inkscape:window-y="27"
     inkscape:window-maximized="1" />
  <metadata
     id="metadata5">
    <rdf:RDF>
      <cc:Work
         rdf:about="">
        <dc:format>image/svg+xml</dc:format>
        <dc:type
           rdf:resource="http://purl.org/dc/dcmitype/StillImage" />
        <dc:title></dc:title>
      </cc:Work>
    </rdf:RDF>
  </metadata>
  <g
     inkscape:label="Calque 1"
     inkscape:groupmode="layer"
     id="layer1"
     transform="translate(0,-167)">
    <path
       id="path815"
       d="m 42.413984,273.05712 c 0,0.51041 -0.586971,0.91874 -1.327063,0.91874 -0.842174,0.0766 -1.429145,-0.33177 -1.429145,-0.91874 0,-0.51041 0.586971,-0.91873 1.327063,-0.91873 0.765613,-0.0766 1.429145,0.33176 1.429145,0.91873 z m -7.936858,-1.14842 c -0.178643,0.51041 0.331767,1.09738 1.09738,1.2505 0.663531,0.2552 1.429144,0 1.582266,-0.51041 0.153123,-0.5104 -0.331765,-1.09738 -1.097378,-1.32706 -0.663532,-0.17864 -1.403624,0.0766 -1.582268,0.58697 z m 11.280036,-0.43385 c -0.740093,0.17865 -1.250502,0.66354 -1.173941,1.25051 0.07656,0.5104 0.740093,0.84217 1.505706,0.66352 0.740094,-0.17863 1.250502,-0.66352 1.17394,-1.17394 -0.07656,-0.48489 -0.765613,-0.81665 -1.505705,-0.74009 z m 16.79245,-97.79434 c -35.396852,0 -62.47403594,26.87304 -62.47403594,62.26989 0,28.30218 17.81326394,52.52107 43.25714394,61.04489 3.266617,0.58697 4.415036,-1.42914 4.415036,-3.08797 0,-1.58226 -0.07656,-10.31026 -0.07656,-15.66955 0,0 -17.86431,3.82807 -21.615815,-7.6051 0,0 -2.90933,-7.42644 -7.094682,-9.34047 0,0 -5.844182,-4.00671 0.408327,-3.93014 0,0 6.35459,0.5104 9.850891,6.58427 5.588976,9.85088 14.954978,7.01811 18.604402,5.33376 0.586969,-4.08327 2.245798,-6.91603 4.08327,-8.60038 -14.265927,-1.58227 -28.659456,-3.64942 -28.659456,-28.20009 0,-7.01812 1.939554,-10.53994 6.022824,-15.03154 -0.663531,-1.65883 -2.832769,-8.4983 0.663532,-17.32838 5.333772,-1.65883 17.609104,6.89052 17.609104,6.89052 5.104089,-1.42914 10.590983,-2.16923 16.02683,-2.16923 5.435827,0 10.922691,0.74009 16.026754,2.16923 0,0 12.275275,-8.57487 17.609029,-6.89052 3.496304,8.8556 1.32706,15.66955 0.663525,17.32838 4.083279,4.51712 6.584279,8.03894 6.584279,15.03154 0,24.62723 -15.03152,26.5923 -29.297367,28.20009 2.347863,2.01612 4.338446,5.84418 4.338446,11.84148 0,8.60039 -0.07659,19.24241 -0.07659,21.33509 0,1.65883 1.173941,3.67495 4.415018,3.08798 25.520383,-8.47279 42.823233,-32.69168 42.823233,-60.99386 0,-35.39685 -28.710486,-62.26989 -64.107165,-62.26989 z M 24.88144,261.70053 c -0.331765,0.25521 -0.255204,0.84217 0.178643,1.32706 0.408328,0.40833 0.995297,0.58697 1.327064,0.25521 0.331765,-0.25521 0.255204,-0.84218 -0.178644,-1.32706 -0.408327,-0.40834 -0.995297,-0.58698 -1.327063,-0.25521 z m -2.756207,-2.06716 c -0.178643,0.33177 0.07656,0.7401 0.58697,0.9953 0.408327,0.25521 0.918736,0.17864 1.097379,-0.17865 0.178643,-0.33176 -0.07656,-0.74009 -0.586971,-0.99529 -0.510408,-0.15312 -0.918736,-0.0766 -1.097378,0.17864 z m 8.268623,9.08528 c -0.408327,0.33176 -0.255204,1.09738 0.331765,1.58227 0.586971,0.58696 1.327064,0.66352 1.658829,0.2552 0.331766,-0.33177 0.178643,-1.09738 -0.331765,-1.58227 -0.561451,-0.58697 -1.327064,-0.66353 -1.658829,-0.2552 z m -2.909331,-3.7515 c -0.408326,0.2552 -0.408326,0.91873 0,1.5057 0.408327,0.58697 1.097379,0.84218 1.429146,0.58697 0.408326,-0.33177 0.408326,-0.99529 0,-1.58226 -0.357287,-0.58698 -1.020819,-0.84218 -1.429146,-0.51041 z"
       inkscape:connector-curvature="0"
       style="fill:#ffffff;stroke-width:0.25520441" />
  </g>
</svg>
