<?xml version="1.0" encoding="UTF-8" standalone="no"?>
<!-- Created with Inkscape (http://www.inkscape.org/) -->

<svg
   xmlns:dc="http://purl.org/dc/elements/1.1/"
   xmlns:cc="http://creativecommons.org/ns#"
   xmlns:rdf="http://www.w3.org/1999/02/22-rdf-syntax-ns#"
   xmlns:svg="http://www.w3.org/2000/svg"
   xmlns="http://www.w3.org/2000/svg"
   xmlns:sodipodi="http://sodipodi.sourceforge.net/DTD/sodipodi-0.dtd"
   xmlns:inkscape="http://www.inkscape.org/namespaces/inkscape"
   width="130mm"
   height="130mm"
   viewBox="0 0 130 130"
   version="1.1"
   id="svg8"
   inkscape:version="0.92.3 (2405546, 2018-03-11)"
   sodipodi:docname="link-solid.svg">
  <defs
     id="defs2" />
  <sodipodi:namedview
     id="base"
     pagecolor="#ffffff"
     bordercolor="#666666"
     borderopacity="1.0"
     inkscape:pageopacity="0.0"
     inkscape:pageshadow="2"
     inkscape:zoom="0.35"
     inkscape:cx="-168.57143"
     inkscape:cy="548.57143"
     inkscape:document-units="mm"
     inkscape:current-layer="layer1"
     showgrid="false"
     inkscape:window-width="1920"
     inkscape:window-height="1016"
     inkscape:window-x="0"
     inkscape:window-y="27"
     inkscape:window-maximized="1" />
  <metadata
     id="metadata5">
    <rdf:RDF>
      <cc:Work
         rdf:about="">
        <dc:format>image/svg+xml</dc:format>
        <dc:type
           rdf:resource="http://purl.org/dc/dcmitype/StillImage" />
        <dc:title></dc:title>
      </cc:Work>
    </rdf:RDF>
  </metadata>
  <g
     inkscape:label="Calque 1"
     inkscape:groupmode="layer"
     id="layer1"
     transform="translate(0,-167)">
    <path
       id="path874"
       d="m 80.720818,216.35562 c 13.867342,13.88173 13.677018,36.13766 0.0836,49.80657 -0.02553,0.0278 -0.0557,0.058 -0.0836,0.0859 l -15.597192,15.59719 c -13.756627,13.75664 -36.137904,13.75478 -49.892443,0 -13.7566374,-13.75431 -13.7566374,-36.13813 0,-49.89244 l 8.612343,-8.61235 c 2.283874,-2.28387 6.21706,-0.76593 6.33496,2.46167 0.150401,4.1133 0.888022,8.24585 2.249066,12.2366 0.46095,1.35129 0.131602,2.84602 -0.87804,3.85566 l -3.037505,3.03751 c -6.504871,6.50486 -6.708889,17.09657 -0.268082,23.66503 6.504406,6.63321 17.195439,6.67267 23.749743,0.11836 l 15.597191,-15.59486 c 6.543163,-6.54317 6.515776,-17.11908 0,-23.63486 -0.859003,-0.85738 -1.724279,-1.52351 -2.400151,-1.98887 a 3.7222049,3.7222049 0 0 1 -1.612406,-2.92586 c -0.09192,-2.45262 0.77707,-4.97996 2.715113,-6.91802 l 4.886658,-4.88688 c 1.281426,-1.28143 3.291657,-1.4388 4.777566,-0.40177 a 35.391236,35.391236 0 0 1 4.763179,3.99145 z m 32.711172,-32.7128 c -13.754549,-13.75476 -36.135826,-13.75662 -49.892453,0 l -15.597192,15.59719 c -0.02781,0.0279 -0.05799,0.058 -0.0836,0.0859 -13.593234,13.66889 -13.783786,35.92483 0.0836,49.80657 a 35.384736,35.384736 0 0 0 4.762942,3.9912 c 1.485918,1.03703 3.496377,0.87944 4.777575,-0.40176 l 4.886658,-4.88689 c 1.938043,-1.93804 2.807029,-4.46539 2.715113,-6.918 a 3.7222049,3.7222049 0 0 0 -1.612406,-2.92587 c -0.675881,-0.46536 -1.541148,-1.13149 -2.40016,-1.98888 -6.515767,-6.51576 -6.543154,-17.09169 0,-23.63485 l 15.597192,-15.59487 c 6.554303,-6.5543 17.245116,-6.51484 23.749741,0.11838 6.44082,6.56846 6.23704,17.16015 -0.26807,23.66502 l -3.037507,3.03751 c -1.009642,1.00963 -1.33899,2.50437 -0.87804,3.85566 1.361044,3.99074 2.098656,8.12331 2.249057,12.2366 0.118146,3.2276 4.0511,4.74554 6.33498,2.46166 l 8.61234,-8.61234 c 13.75686,-13.75408 13.75686,-36.13791 2.3e-4,-49.89222 z"
       inkscape:connector-curvature="0"
       style="fill:#ffffff;stroke-width:0.23210105" />
  </g>
</svg>
